<?xml version="1.0" encoding="UTF-8" standalone="no"?>
<svg
   xmlns:dc="http://purl.org/dc/elements/1.1/"
   xmlns:cc="http://creativecommons.org/ns#"
   xmlns:rdf="http://www.w3.org/1999/02/22-rdf-syntax-ns#"
   xmlns:svg="http://www.w3.org/2000/svg"
   xmlns="http://www.w3.org/2000/svg"
   xmlns:sodipodi="http://sodipodi.sourceforge.net/DTD/sodipodi-0.dtd"
   xmlns:inkscape="http://www.inkscape.org/namespaces/inkscape"
   height="42"
   id="svg3236"
   version="1.1"
   width="42"
   inkscape:version="0.91 r13725"
   sodipodi:docname="superhero.svg">
  <metadata
     id="metadata9">
    <rdf:RDF>
      <cc:Work
         rdf:about="">
        <dc:format>image/svg+xml</dc:format>
        <dc:type
           rdf:resource="http://purl.org/dc/dcmitype/StillImage" />
        <dc:title />
      </cc:Work>
    </rdf:RDF>
  </metadata>
  <sodipodi:namedview
     pagecolor="#ffffff"
     bordercolor="#666666"
     borderopacity="1"
     objecttolerance="10"
     gridtolerance="10"
     guidetolerance="10"
     inkscape:pageopacity="0"
     inkscape:pageshadow="2"
     inkscape:window-width="1473"
     inkscape:window-height="1015"
     id="namedview7"
     showgrid="false"
     inkscape:zoom="14.844555"
     inkscape:cx="5.472421"
     inkscape:cy="21.016205"
     inkscape:window-x="94"
     inkscape:window-y="30"
     inkscape:window-maximized="0"
     inkscape:current-layer="svg3236" />
  <defs
     id="defs3238" />
  <g
     id="layer1"
     transform="translate(0,-1010.3622)"
     style="fill:#4d4d4d;fill-opacity:1">
    <g
       id="g3266"
       transform="translate(-492.08524,657.34812)"
       style="fill:#4d4d4d;fill-opacity:1">
      <path
         d="m 513.69771,354.30347 c -1.933,0 -3.5,1.567 -3.5,3.5 0,1.93299 1.567,3.5 3.5,3.5 1.933,0 3.5,-1.56701 3.5,-3.5 0,-1.933 -1.567,-3.5 -3.5,-3.5 z m 0,8 c -1.52819,0 -2.87415,0.74172 -3.6875,1.90625 a 1.50015,1.50015 0 0 0 -0.125,0.0937 l -5.03125,2.875 a 1.50015,1.50015 0 0 0 -0.4375,2.25 l 4.46875,5.6875 a 1.50015,1.50015 0 0 0 1.09375,0.6875 l 0.15625,1.75 -2.71875,14.5625 a 1.50015,1.50015 0 1 0 2.9375,0.5625 l 2.6875,-14.375 1.3125,0 2.1875,14.375 a 1.5004068,1.5004068 0 1 0 2.96875,-0.4375 l -2.25,-14.71875 0.1875,-2.09375 a 1.5033329,1.5033329 0 0 0 0.8125,-0.5 l 4.4375,-5.71875 a 1.50015,1.50015 0 0 0 -0.4375,-2.21875 l -4.90625,-2.8125 c -0.81686,-1.13574 -2.15046,-1.875 -3.65625,-1.875 z m 4.34375,5.75 1.21875,0.6875 -1.40625,1.8125 0.1875,-2.5 z m -8.6875,0.0312 0.25,3.09375 -1.75,-2.25 1.5,-0.84375 z"
         id="path3779"
         style="fill:#4d4d4d;fill-rule:evenodd;stroke:none;fill-opacity:1" />
    </g>
  </g>
  <path
     style="fill:none;fill-rule:evenodd;stroke:#4d4d4d;stroke-width:1px;stroke-linecap:butt;stroke-linejoin:miter;stroke-opacity:1"
     d="M 19.939971,11.281666 C 6.1478253,11.322894 4.7209001,26.436706 2.7619555,37.015007 14.950381,32.804424 26.369606,39.684395 37.656905,32.501568 36.847047,26.167568 34.952967,20.781927 30.38151,16.334023"
     id="path3339"
     inkscape:connector-curvature="0" />
</svg>
